<mxfile host="app.diagrams.net" agent="Mozilla/5.0 (Macintosh; Intel Mac OS X 10_15_7) AppleWebKit/605.1.15 (KHTML, like Gecko) Version/17.6 Safari/605.1.15" version="28.2.3">
  <diagram name="Page-1" id="e7e014a7-5840-1c2e-5031-d8a46d1fe8dd">
    <mxGraphModel dx="1426" dy="807" grid="1" gridSize="10" guides="1" tooltips="1" connect="1" arrows="1" fold="1" page="1" pageScale="1" pageWidth="1169" pageHeight="826" background="none" math="0" shadow="0">
      <root>
        <mxCell id="0" />
        <mxCell id="1" parent="0" />
        <mxCell id="2" value="User Interaction" style="swimlane;whiteSpace=wrap" parent="1" vertex="1">
          <mxGeometry x="164.5" y="128" width="280" height="570" as="geometry" />
        </mxCell>
        <mxCell id="5" value="" style="ellipse;shape=startState;" parent="2" vertex="1">
          <mxGeometry x="107" y="40" width="30" height="30" as="geometry" />
        </mxCell>
        <mxCell id="6" value="" style="edgeStyle=elbowEdgeStyle;elbow=horizontal;verticalAlign=bottom;endArrow=open;endSize=8;strokeColor=#FF0000;endFill=1;rounded=0" parent="2" edge="1">
          <mxGeometry x="100" y="40" as="geometry">
            <mxPoint x="123.21428571428578" y="110" as="targetPoint" />
            <mxPoint x="123" y="70" as="sourcePoint" />
          </mxGeometry>
        </mxCell>
        <mxCell id="4QGQxfE6jQdOyRP4CFob-43" value="Browse PDF" style="rounded=1;whiteSpace=wrap;html=1;arcSize=40;fontColor=#000000;fillColor=#ffffc0;strokeColor=#ff0000;" parent="2" vertex="1">
          <mxGeometry x="65" y="112" width="120" height="40" as="geometry" />
        </mxCell>
        <mxCell id="4QGQxfE6jQdOyRP4CFob-44" value="" style="edgeStyle=orthogonalEdgeStyle;html=1;verticalAlign=bottom;endArrow=open;endSize=8;strokeColor=#ff0000;rounded=0;" parent="2" edge="1">
          <mxGeometry relative="1" as="geometry">
            <mxPoint x="126" y="212" as="targetPoint" />
            <mxPoint x="126.00000000000023" y="152" as="sourcePoint" />
          </mxGeometry>
        </mxCell>
        <mxCell id="4QGQxfE6jQdOyRP4CFob-49" value="Update Label With Path" style="rounded=1;whiteSpace=wrap;html=1;arcSize=40;fontColor=#000000;fillColor=#ffffc0;strokeColor=#ff0000;" parent="2" vertex="1">
          <mxGeometry x="65.5" y="212" width="120" height="40" as="geometry" />
        </mxCell>
        <mxCell id="4QGQxfE6jQdOyRP4CFob-56" value="Click Convert" style="rounded=1;whiteSpace=wrap;html=1;arcSize=40;fontColor=#000000;fillColor=#ffffc0;strokeColor=#ff0000;" parent="2" vertex="1">
          <mxGeometry x="65.5" y="312" width="120" height="40" as="geometry" />
        </mxCell>
        <mxCell id="3" value="Conversion Process" style="swimlane;whiteSpace=wrap" parent="1" vertex="1">
          <mxGeometry x="445" y="128" width="280" height="570" as="geometry" />
        </mxCell>
        <mxCell id="4QGQxfE6jQdOyRP4CFob-65" value="Start Conversion Thread" style="rounded=1;whiteSpace=wrap;html=1;arcSize=40;fontColor=#000000;fillColor=#ffffc0;strokeColor=#ff0000;" parent="3" vertex="1">
          <mxGeometry x="72.5" y="112" width="120" height="40" as="geometry" />
        </mxCell>
        <mxCell id="4QGQxfE6jQdOyRP4CFob-66" value="" style="edgeStyle=orthogonalEdgeStyle;html=1;verticalAlign=bottom;endArrow=open;endSize=8;strokeColor=#ff0000;rounded=0;" parent="3" source="4QGQxfE6jQdOyRP4CFob-65" edge="1">
          <mxGeometry relative="1" as="geometry">
            <mxPoint x="132.5" y="182" as="targetPoint" />
          </mxGeometry>
        </mxCell>
        <mxCell id="4QGQxfE6jQdOyRP4CFob-69" value="Create DOCX Document" style="rounded=1;whiteSpace=wrap;html=1;arcSize=40;fontColor=#000000;fillColor=#ffffc0;strokeColor=#ff0000;" parent="3" vertex="1">
          <mxGeometry x="72.5" y="182" width="120" height="40" as="geometry" />
        </mxCell>
        <mxCell id="4QGQxfE6jQdOyRP4CFob-70" value="" style="edgeStyle=orthogonalEdgeStyle;html=1;verticalAlign=bottom;endArrow=open;endSize=8;strokeColor=#ff0000;rounded=0;" parent="3" source="4QGQxfE6jQdOyRP4CFob-69" edge="1">
          <mxGeometry relative="1" as="geometry">
            <mxPoint x="132" y="262" as="targetPoint" />
          </mxGeometry>
        </mxCell>
        <mxCell id="4QGQxfE6jQdOyRP4CFob-71" value="Initialise Page and Word Counting" style="rounded=1;whiteSpace=wrap;html=1;arcSize=40;fontColor=#000000;fillColor=#ffffc0;strokeColor=#ff0000;" parent="3" vertex="1">
          <mxGeometry x="72.5" y="262" width="120" height="40" as="geometry" />
        </mxCell>
        <mxCell id="4QGQxfE6jQdOyRP4CFob-72" value="" style="edgeStyle=orthogonalEdgeStyle;html=1;verticalAlign=bottom;endArrow=open;endSize=8;strokeColor=#ff0000;rounded=0;" parent="3" source="4QGQxfE6jQdOyRP4CFob-71" edge="1">
          <mxGeometry relative="1" as="geometry">
            <mxPoint x="132" y="332" as="targetPoint" />
          </mxGeometry>
        </mxCell>
        <mxCell id="4QGQxfE6jQdOyRP4CFob-74" value="Extract Text from Page" style="rounded=1;whiteSpace=wrap;html=1;arcSize=40;fontColor=#000000;fillColor=#ffffc0;strokeColor=#ff0000;" parent="3" vertex="1">
          <mxGeometry x="72.5" y="332" width="120" height="40" as="geometry" />
        </mxCell>
        <mxCell id="4QGQxfE6jQdOyRP4CFob-75" value="" style="edgeStyle=orthogonalEdgeStyle;html=1;verticalAlign=bottom;endArrow=open;endSize=8;strokeColor=#ff0000;rounded=0;" parent="3" source="4QGQxfE6jQdOyRP4CFob-74" edge="1">
          <mxGeometry relative="1" as="geometry">
            <mxPoint x="132" y="402" as="targetPoint" />
          </mxGeometry>
        </mxCell>
        <mxCell id="4QGQxfE6jQdOyRP4CFob-77" value="Split Text and Count Words" style="rounded=1;whiteSpace=wrap;html=1;arcSize=40;fontColor=#000000;fillColor=#ffffc0;strokeColor=#ff0000;" parent="3" vertex="1">
          <mxGeometry x="72.5" y="402" width="120" height="40" as="geometry" />
        </mxCell>
        <mxCell id="4QGQxfE6jQdOyRP4CFob-78" value="" style="edgeStyle=orthogonalEdgeStyle;html=1;verticalAlign=bottom;endArrow=open;endSize=8;strokeColor=#ff0000;rounded=0;" parent="3" source="4QGQxfE6jQdOyRP4CFob-77" edge="1">
          <mxGeometry relative="1" as="geometry">
            <mxPoint x="132" y="472" as="targetPoint" />
          </mxGeometry>
        </mxCell>
        <mxCell id="4QGQxfE6jQdOyRP4CFob-79" value="Add total words and add paragraphs" style="rounded=1;whiteSpace=wrap;html=1;arcSize=40;fontColor=#000000;fillColor=#ffffc0;strokeColor=#ff0000;" parent="3" vertex="1">
          <mxGeometry x="72.5" y="470" width="120" height="40" as="geometry" />
        </mxCell>
        <mxCell id="4QGQxfE6jQdOyRP4CFob-80" value="" style="edgeStyle=orthogonalEdgeStyle;html=1;verticalAlign=bottom;endArrow=open;endSize=8;strokeColor=#ff0000;rounded=0;" parent="3" edge="1">
          <mxGeometry relative="1" as="geometry">
            <mxPoint x="265" y="512" as="targetPoint" />
            <mxPoint x="132.50000000000023" y="510" as="sourcePoint" />
            <Array as="points">
              <mxPoint x="133" y="526" />
            </Array>
          </mxGeometry>
        </mxCell>
        <mxCell id="4" value="Final Stage" style="swimlane;whiteSpace=wrap;" parent="1" vertex="1">
          <mxGeometry x="724.5" y="128" width="280" height="570" as="geometry">
            <mxRectangle x="724.5" y="128" width="90" height="30" as="alternateBounds" />
          </mxGeometry>
        </mxCell>
        <mxCell id="38" value="" style="ellipse;shape=endState;fillColor=#000000;strokeColor=#ff0000" parent="4" vertex="1">
          <mxGeometry x="127" y="500" width="30" height="30" as="geometry" />
        </mxCell>
        <mxCell id="39" value="" style="endArrow=open;strokeColor=#FF0000;endFill=1;rounded=0;exitX=0.529;exitY=0.9;exitDx=0;exitDy=0;exitPerimeter=0;" parent="4" source="4QGQxfE6jQdOyRP4CFob-95" edge="1">
          <mxGeometry relative="1" as="geometry">
            <mxPoint x="140.5" y="412" as="sourcePoint" />
            <mxPoint x="140" y="500" as="targetPoint" />
          </mxGeometry>
        </mxCell>
        <mxCell id="4QGQxfE6jQdOyRP4CFob-67" value="Show Error Message" style="rounded=1;whiteSpace=wrap;html=1;arcSize=40;fontColor=#000000;fillColor=#ffffc0;strokeColor=#ff0000;" parent="4" vertex="1">
          <mxGeometry x="95.5" y="32" width="120" height="40" as="geometry" />
        </mxCell>
        <mxCell id="4QGQxfE6jQdOyRP4CFob-68" value="" style="edgeStyle=orthogonalEdgeStyle;html=1;verticalAlign=bottom;endArrow=open;endSize=8;strokeColor=#ff0000;rounded=0;" parent="4" edge="1">
          <mxGeometry relative="1" as="geometry">
            <mxPoint x="180.5" y="392" as="targetPoint" />
            <mxPoint x="180.50000000000023" y="72" as="sourcePoint" />
          </mxGeometry>
        </mxCell>
        <mxCell id="4QGQxfE6jQdOyRP4CFob-81" value="Calculate Percentage" style="rounded=1;whiteSpace=wrap;html=1;arcSize=40;fontColor=#000000;fillColor=#ffffc0;strokeColor=#ff0000;" parent="4" vertex="1">
          <mxGeometry x="-74.5" y="470" width="120" height="40" as="geometry" />
        </mxCell>
        <mxCell id="4QGQxfE6jQdOyRP4CFob-83" value="Update Progress Label" style="rounded=1;whiteSpace=wrap;html=1;arcSize=40;fontColor=#000000;fillColor=#ffffc0;strokeColor=#ff0000;" parent="4" vertex="1">
          <mxGeometry x="-64.5" y="370" width="120" height="40" as="geometry" />
        </mxCell>
        <mxCell id="4QGQxfE6jQdOyRP4CFob-88" value="Save DOCX File" style="rounded=1;whiteSpace=wrap;html=1;arcSize=40;fontColor=#000000;fillColor=#ffffc0;strokeColor=#ff0000;" parent="4" vertex="1">
          <mxGeometry x="-74.5" y="270" width="120" height="40" as="geometry" />
        </mxCell>
        <mxCell id="4QGQxfE6jQdOyRP4CFob-91" value="Show Success Message" style="rounded=1;whiteSpace=wrap;html=1;arcSize=40;fontColor=#000000;fillColor=#ffffc0;strokeColor=#ff0000;" parent="4" vertex="1">
          <mxGeometry x="-74.5" y="170" width="120" height="40" as="geometry" />
        </mxCell>
        <mxCell id="4QGQxfE6jQdOyRP4CFob-95" value="" style="rhombus;fillColor=#ffffc0;strokeColor=#ff0000;" parent="4" vertex="1">
          <mxGeometry x="100" y="370" width="80" height="40" as="geometry" />
        </mxCell>
        <mxCell id="4QGQxfE6jQdOyRP4CFob-55" value="" style="edgeStyle=orthogonalEdgeStyle;html=1;verticalAlign=bottom;endArrow=open;endSize=8;strokeColor=#ff0000;rounded=0;" parent="1" edge="1">
          <mxGeometry relative="1" as="geometry">
            <mxPoint x="293" y="439" as="targetPoint" />
            <mxPoint x="293" y="379" as="sourcePoint" />
            <Array as="points">
              <mxPoint x="293" y="399" />
              <mxPoint x="293" y="399" />
            </Array>
          </mxGeometry>
        </mxCell>
        <mxCell id="4QGQxfE6jQdOyRP4CFob-62" value="Is PDF file not corrupted?" style="rhombus;whiteSpace=wrap;html=1;fontColor=#000000;fillColor=#ffffc0;strokeColor=#ff0000;" parent="1" vertex="1">
          <mxGeometry x="537" y="161" width="80" height="40" as="geometry" />
        </mxCell>
        <mxCell id="4QGQxfE6jQdOyRP4CFob-63" value="no" style="edgeStyle=orthogonalEdgeStyle;html=1;align=left;verticalAlign=bottom;endArrow=open;endSize=8;strokeColor=#ff0000;rounded=0;" parent="1" source="4QGQxfE6jQdOyRP4CFob-62" edge="1">
          <mxGeometry x="-1" relative="1" as="geometry">
            <mxPoint x="820" y="180" as="targetPoint" />
          </mxGeometry>
        </mxCell>
        <mxCell id="4QGQxfE6jQdOyRP4CFob-64" value="yes" style="edgeStyle=orthogonalEdgeStyle;html=1;align=left;verticalAlign=top;endArrow=open;endSize=8;strokeColor=#ff0000;rounded=0;" parent="1" source="4QGQxfE6jQdOyRP4CFob-62" edge="1">
          <mxGeometry x="-1" relative="1" as="geometry">
            <mxPoint x="577" y="240" as="targetPoint" />
          </mxGeometry>
        </mxCell>
        <mxCell id="4QGQxfE6jQdOyRP4CFob-85" value="" style="edgeStyle=orthogonalEdgeStyle;html=1;verticalAlign=bottom;endArrow=open;endSize=8;strokeColor=#ff0000;rounded=0;" parent="1" edge="1">
          <mxGeometry relative="1" as="geometry">
            <mxPoint x="712" y="537" as="targetPoint" />
            <mxPoint x="712" y="596" as="sourcePoint" />
            <Array as="points">
              <mxPoint x="712" y="547" />
              <mxPoint x="712" y="547" />
            </Array>
          </mxGeometry>
        </mxCell>
        <mxCell id="4QGQxfE6jQdOyRP4CFob-86" value="" style="edgeStyle=orthogonalEdgeStyle;html=1;verticalAlign=bottom;endArrow=open;strokeColor=#ff0000;rounded=0;entryX=0;entryY=0.5;entryDx=0;entryDy=0;exitX=1;exitY=0.5;exitDx=0;exitDy=0;" parent="1" source="4QGQxfE6jQdOyRP4CFob-56" target="4QGQxfE6jQdOyRP4CFob-62" edge="1">
          <mxGeometry relative="1" as="geometry">
            <mxPoint x="480" y="180" as="targetPoint" />
            <mxPoint x="375" y="653" as="sourcePoint" />
            <Array as="points">
              <mxPoint x="430" y="460" />
              <mxPoint x="430" y="181" />
            </Array>
          </mxGeometry>
        </mxCell>
        <mxCell id="4QGQxfE6jQdOyRP4CFob-90" value="" style="edgeStyle=orthogonalEdgeStyle;html=1;verticalAlign=bottom;endArrow=open;endSize=8;strokeColor=#ff0000;rounded=0;" parent="1" edge="1">
          <mxGeometry relative="1" as="geometry">
            <mxPoint x="711" y="438" as="targetPoint" />
            <mxPoint x="711" y="497" as="sourcePoint" />
            <Array as="points">
              <mxPoint x="711" y="448" />
              <mxPoint x="711" y="448" />
            </Array>
          </mxGeometry>
        </mxCell>
        <mxCell id="4QGQxfE6jQdOyRP4CFob-93" value="" style="edgeStyle=orthogonalEdgeStyle;html=1;verticalAlign=bottom;endArrow=open;endSize=8;strokeColor=#ff0000;rounded=0;" parent="1" edge="1">
          <mxGeometry relative="1" as="geometry">
            <mxPoint x="711" y="340" as="targetPoint" />
            <mxPoint x="711" y="399" as="sourcePoint" />
            <Array as="points">
              <mxPoint x="711" y="350" />
              <mxPoint x="711" y="350" />
            </Array>
          </mxGeometry>
        </mxCell>
        <mxCell id="4QGQxfE6jQdOyRP4CFob-94" value="" style="edgeStyle=orthogonalEdgeStyle;html=1;align=left;verticalAlign=bottom;endArrow=open;endSize=8;strokeColor=#ff0000;rounded=0;" parent="1" edge="1">
          <mxGeometry x="-1" relative="1" as="geometry">
            <mxPoint x="820" y="520" as="targetPoint" />
            <mxPoint x="772" y="318" as="sourcePoint" />
            <Array as="points">
              <mxPoint x="820" y="318" />
            </Array>
          </mxGeometry>
        </mxCell>
      </root>
    </mxGraphModel>
  </diagram>
</mxfile>
